<svg width="23" height="23" viewBox="0 0 23 23" fill="none" xmlns="http://www.w3.org/2000/svg">
<path d="M6.98838 11.4822L8.21295 12.8865L10.3587 10.0779M20.4699 17.0995H14.8526V5.86492H20.4699C20.7678 5.86492 21.0536 5.98328 21.2643 6.19397C21.475 6.40466 21.5933 6.69042 21.5933 6.98838V15.976C21.5933 16.274 21.475 16.5597 21.2643 16.7704C21.0536 16.9811 20.7678 17.0995 20.4699 17.0995ZM14.8526 10.3587H21.5933H14.8526ZM14.8526 20.4699V2.49455C14.8526 2.19659 14.7342 1.91084 14.5235 1.70015C14.3128 1.48946 14.0271 1.37109 13.7291 1.37109H2.49455C2.19659 1.37109 1.91084 1.48946 1.70015 1.70015C1.48946 1.91084 1.37109 2.19659 1.37109 2.49455V20.4699C1.37109 20.7678 1.48946 21.0536 1.70015 21.2643C1.91084 21.475 2.19659 21.5933 2.49455 21.5933H13.7291C14.0271 21.5933 14.3128 21.475 14.5235 21.2643C14.7342 21.0536 14.8526 20.7678 14.8526 20.4699ZM10.3587 1.37109H5.86492L6.42665 3.61801H9.79702L10.3587 1.37109Z" stroke="black" stroke-width="2.24691" stroke-linecap="round" stroke-linejoin="round"/>
</svg>
