<svg width="20" height="17" viewBox="0 0 20 17" fill="none" xmlns="http://www.w3.org/2000/svg">
<mask id="mask0" mask-type="alpha" maskUnits="userSpaceOnUse" x="0" y="0" width="20" height="17">
<path fill-rule="evenodd" clip-rule="evenodd" d="M15.6273 0.546811C15.2955 0.298617 14.8255 0.366792 14.5776 0.699085L3.57764 15.4455L3.51783 15.5393C3.34433 15.8615 3.42803 16.2709 3.72972 16.4966C4.06158 16.7447 4.53155 16.6766 4.77942 16.3443L15.7794 1.59788L15.8392 1.50409C16.0127 1.18186 15.929 0.772442 15.6273 0.546811ZM9.7763 1.33054C10.6422 1.33054 11.4662 1.48235 12.2411 1.73984L11.3764 2.89904C10.869 2.76907 10.342 2.69595 9.79854 2.69595C4.90965 2.69595 1.3541 8.61272 1.3541 8.61272C1.3541 8.61272 2.51889 10.551 4.43181 12.2088L3.61474 13.3042C1.54272 11.5345 0.288524 9.48285 0.19853 9.33181C-0.0661767 8.89236 -0.0661767 8.33759 0.19853 7.89814C0.35853 7.62961 4.19853 1.33054 9.7763 1.33054ZM9.77632 4.97165C9.79427 4.97165 9.81218 4.97179 9.83006 4.97206L8.50889 6.7432C8.13026 7.01289 7.83744 7.40012 7.68083 7.85328L6.35977 9.62426C6.26926 9.30311 6.22076 8.96371 6.22076 8.61272C6.22076 6.60181 7.81264 4.97165 9.77632 4.97165ZM13.0912 7.29321L11.9937 8.76456C11.9338 9.69464 11.3284 10.4721 10.502 10.7643L9.40549 12.2342C9.52738 12.2472 9.65109 12.2538 9.77632 12.2538C11.74 12.2538 13.3319 10.6236 13.3319 8.61272C13.3319 8.14733 13.2466 7.70233 13.0912 7.29321ZM9.79854 14.5295C9.14328 14.5295 8.51197 14.4232 7.90996 14.2391L7.0518 15.3895C7.90022 15.7023 8.81024 15.8917 9.77186 15.8949H9.79852C15.3585 15.8949 19.1985 9.59579 19.3585 9.32726C19.62 8.88807 19.6183 8.33562 19.3541 7.89814C19.2612 7.74229 17.9288 5.55512 15.7365 3.747L14.935 4.82148C16.9843 6.51815 18.243 8.61272 18.243 8.61272C18.243 8.61272 14.6741 14.5295 9.79854 14.5295Z" fill="white"/>
</mask>
<g mask="url(#mask0)">
<rect x="-0.322266" y="-1.85547" width="20" height="20.0259" fill="black"/>
</g>
</svg>
