<svg width="20" height="15" viewBox="0 0 20 15" fill="none" xmlns="http://www.w3.org/2000/svg">
<path fill-rule="evenodd" clip-rule="evenodd" d="M19.3506 6.41219C19.1907 6.15002 15.3514 0 9.77457 0C4.19778 0 0.358467 6.15002 0.198495 6.41219C-0.066165 6.84125 -0.066165 7.38289 0.198495 7.81194C0.358467 8.07412 4.19778 14.2019 9.77012 14.2197H9.79679C15.3558 14.2197 19.1951 8.06968 19.3551 7.8075C19.6166 7.37869 19.6148 6.83932 19.3506 6.41219ZM9.79679 12.8866C4.90877 12.8866 1.35384 7.10985 1.35384 7.10985C1.35384 7.10985 4.90877 1.3331 9.79679 1.3331C14.6848 1.3331 18.2397 7.10985 18.2397 7.10985C18.2397 7.10985 14.6715 12.8866 9.79679 12.8866Z" fill="black"/>
<path fill-rule="evenodd" clip-rule="evenodd" d="M9.77562 3.55469C7.8123 3.55469 6.2207 5.14628 6.2207 7.10961C6.2207 9.07294 7.8123 10.6645 9.77562 10.6645C11.739 10.6645 13.3305 9.07294 13.3305 7.10961C13.3305 5.14628 11.739 3.55469 9.77562 3.55469ZM9.77562 9.33144C8.54854 9.33144 7.5538 8.33669 7.5538 7.10961C7.5538 5.88253 8.54854 4.88778 9.77562 4.88778C11.0027 4.88778 11.9975 5.88253 11.9975 7.10961C11.9975 8.33669 11.0027 9.33144 9.77562 9.33144Z" fill="black"/>
</svg>
