<svg width="86" height="100" viewBox="0 0 86 100" fill="none" xmlns="http://www.w3.org/2000/svg">
<path d="M86 20.29V46.5349C65.071 42.387 48.358 26.5119 42.9988 6.04646C37.6383 26.5144 20.929 42.3845 0 46.5349V20.29C16.739 20.29 31.7488 12.9074 41.9605 1.22116C42.3124 0.819049 42.6585 0.411996 42.9988 0C43.3358 0.411996 43.6818 0.819049 44.037 1.22116C54.245 12.9087 69.261 20.29 85.9975 20.29H86Z" fill="black"/>
<path d="M12.3874 60.9108C13.2648 61.5091 13.9292 62.3709 14.2846 63.3716V60.1581H17.1682V74.1433C17.1682 75.432 16.9025 76.5745 16.371 77.5707C15.8494 78.5571 15.0547 79.3723 14.082 79.9191C13.0866 80.4876 11.9062 80.7723 10.5408 80.7731C8.58467 80.7731 7.00386 80.3129 5.79836 79.3925C4.59286 78.4721 3.83849 77.225 3.53526 75.6512H6.39288C6.60121 76.4337 7.0837 77.1153 7.75247 77.5719C8.42649 78.0317 9.28631 78.262 10.332 78.2628C11.4781 78.2628 12.4224 77.9114 13.1649 77.2085C13.9073 76.5056 14.2781 75.4847 14.2772 74.1457V70.7814C13.922 71.7822 13.2575 72.644 12.38 73.2422C11.486 73.8619 10.407 74.1717 9.14295 74.1717C8.00193 74.1909 6.87766 73.8954 5.89354 73.3176C4.92797 72.7289 4.15387 71.8728 3.66505 70.8531C3.12533 69.7819 2.85547 68.5183 2.85547 67.0623C2.85547 65.6228 3.12533 64.3674 3.66505 63.2963C4.15731 62.2766 4.93489 61.4218 5.90343 60.8354C6.88764 60.2578 8.01182 59.9623 9.15282 59.9813C10.4152 59.9813 11.4934 60.2912 12.3874 60.9108ZM6.96265 63.7103C6.19552 64.5228 5.81197 65.6401 5.81197 67.0623C5.81197 68.4845 6.19552 69.6018 6.96265 70.4143C7.72979 71.2267 8.75402 71.6326 10.0353 71.6318C10.7982 71.644 11.5501 71.4488 12.2107 71.0669C12.8549 70.6868 13.3805 70.1347 13.7284 69.4725C14.0945 68.724 14.2849 67.9017 14.2849 67.0685C14.2849 66.2352 14.0945 65.413 13.7284 64.6645C13.3831 63.9972 12.8572 63.4404 12.2107 63.0577C11.5501 62.6758 10.7982 62.4806 10.0353 62.4929C8.75485 62.492 7.7302 62.8978 6.96142 63.7103H6.96265Z" fill="black"/>
<path d="M25.5381 60.7219C26.4571 60.1833 27.5073 59.9095 28.5724 59.9309V63.0443H27.7072C26.4424 63.0443 25.4264 63.3496 24.6593 63.9602C23.8921 64.5708 23.5086 65.5793 23.5086 66.9859V73.9914H20.625V60.162H23.5086V62.8737C23.9694 61.98 24.6727 61.2342 25.5381 60.7219V60.7219Z" fill="black"/>
<path d="M39.5474 60.9096C40.4248 61.5079 41.0892 62.3697 41.4446 63.3704V60.1568H44.3269V73.9912H41.4434V70.7777C41.0881 71.7785 40.4236 72.6403 39.5461 73.2385C38.6521 73.8582 37.5731 74.168 36.3091 74.168C35.168 74.1872 34.0438 73.8917 33.0597 73.3139C32.091 72.7277 31.3134 71.8728 30.8213 70.8531C30.2816 69.7819 30.0117 68.5183 30.0117 67.0623C30.0117 65.6228 30.2816 64.3674 30.8213 63.2963C31.3136 62.2766 32.0911 61.4218 33.0597 60.8354C34.0439 60.2578 35.1681 59.9623 36.3091 59.9813C37.5739 59.9805 38.6534 60.2899 39.5474 60.9096ZM34.1226 63.7091C33.3555 64.5215 32.9719 65.6389 32.9719 67.0611C32.9719 68.4833 33.3555 69.6006 34.1226 70.4131C34.8898 71.2255 35.914 71.6313 37.1953 71.6305C37.9582 71.6428 38.7101 71.4475 39.3706 71.0657C40.0149 70.6856 40.5405 70.1335 40.8884 69.4712C41.2545 68.7227 41.4448 67.9005 41.4448 67.0672C41.4448 66.234 41.2545 65.4118 40.8884 64.6632C40.5431 63.996 40.0171 63.4392 39.3706 63.0565C38.7101 62.6746 37.9582 62.4794 37.1953 62.4916C35.9132 62.4908 34.8889 62.8966 34.1226 63.7091Z" fill="black"/>
<path d="M59.4778 61.487C60.4559 62.5252 60.9449 64.0084 60.9449 65.9365V73.9964H58.0614V66.2381C58.0614 65.0021 57.7408 64.0438 57.0998 63.3632C56.4587 62.6826 55.582 62.3435 54.4696 62.346C53.3226 62.346 52.4038 62.7102 51.7133 63.4386C51.0228 64.167 50.6772 65.2341 50.6763 66.6398V73.9964H47.7891V60.1608H50.6726V63.1988C51.0073 62.2077 51.6666 61.3585 52.5439 60.7887C53.4491 60.2113 54.5048 59.9141 55.5783 59.9346C57.1999 59.9313 58.4997 60.4488 59.4778 61.487Z" fill="black"/>
<path d="M11.1475 96.8447V99.3303H9.37758C7.8944 99.3303 6.76882 98.9747 6.00086 98.2636C5.2329 97.5525 4.84935 96.3685 4.85017 94.7114V87.932H2.85156V85.4984H4.85017V82.0586H7.75846V85.4984H11.1228V87.9332H7.75846V94.7621C7.75846 95.549 7.90593 96.0928 8.20092 96.3936C8.49591 96.6943 9.01421 96.8451 9.7558 96.846L11.1475 96.8447Z" fill="black"/>
<path d="M13.9518 81.399C14.2888 81.0809 14.7358 80.9219 15.2929 80.9219C15.8499 80.9219 16.301 81.0809 16.6463 81.399C16.8144 81.5506 16.9478 81.7368 17.0372 81.9448C17.1266 82.1528 17.1699 82.3777 17.1641 82.6041C17.1715 82.827 17.1289 83.0488 17.0393 83.2531C16.9496 83.4573 16.8153 83.6389 16.6463 83.7844C16.3002 84.086 15.849 84.2368 15.2929 84.2368C14.7367 84.2368 14.2896 84.086 13.9518 83.7844C13.7858 83.6371 13.6544 83.4548 13.567 83.2508C13.4796 83.0467 13.4384 82.8259 13.4463 82.6041C13.4401 82.3788 13.482 82.1548 13.5691 81.947C13.6563 81.7392 13.7867 81.5524 13.9518 81.399ZM16.734 85.5V99.3344H13.8504V85.5012L16.734 85.5Z" fill="black"/>
<path d="M33.0732 92.9785H22.3497C22.4 94.4015 22.7964 95.4562 23.5388 96.1426C24.2812 96.829 25.1999 97.1722 26.295 97.1722C27.2558 97.1722 28.0695 96.9295 28.7361 96.4442C29.384 95.987 29.8247 95.2921 29.9622 94.5111H33.0522C32.8792 95.4543 32.4801 96.3416 31.8891 97.0968C31.2781 97.866 30.4879 98.4737 29.5877 98.8667C28.5919 99.3042 27.5136 99.5226 26.426 99.507C25.0771 99.507 23.8824 99.2223 22.8417 98.6529C21.8068 98.0864 20.9587 97.2315 20.4006 96.1921C19.8106 95.1209 19.5156 93.8573 19.5156 92.4013C19.5156 90.9618 19.8106 89.7064 20.4006 88.6352C20.9589 87.596 21.8069 86.7411 22.8417 86.1744C23.8782 85.6058 25.073 85.3211 26.426 85.3203C27.7914 85.3203 28.9862 85.6009 30.0104 86.162C30.9974 86.6924 31.8122 87.4939 32.3588 88.4721C33.0893 89.8537 33.3426 91.438 33.0794 92.9785H33.0732ZM29.7978 89.4003C29.4773 88.8118 28.9825 88.3368 28.3814 88.0407C27.7705 87.7453 27.0996 87.5951 26.4211 87.6019C25.2914 87.6019 24.3471 87.9451 23.5882 88.6315C22.8293 89.3179 22.4173 90.3306 22.3522 91.6696H30.2625C30.298 90.7689 30.1431 90.0125 29.7978 89.4003Z" fill="black"/>
<path d="M47.6421 86.8293C48.6201 87.8675 49.1092 89.3507 49.1092 91.2789V99.3387H46.2256V91.5804C46.2256 90.3445 45.9051 89.3861 45.264 88.7055C44.623 88.0249 43.7462 87.6858 42.6338 87.6883C41.4868 87.6883 40.5681 88.0525 39.8776 88.7809C39.1871 89.5093 38.8414 90.5764 38.8406 91.9821V99.3387H35.957V85.5006H38.8406V88.5387C39.1752 87.5475 39.8346 86.6983 40.7119 86.1285C41.6171 85.5511 42.6727 85.254 43.7462 85.2744C45.3654 85.2736 46.664 85.7919 47.6421 86.8293Z" fill="black"/>
<path d="M61.2976 86.2516C62.1723 86.8466 62.8292 87.7105 63.1688 88.7124V80.7539H66.0796V99.3333H63.1713V96.1197C62.832 97.1217 62.175 97.9858 61.3001 98.5806C60.406 99.2002 59.327 99.51 58.063 99.51C56.922 99.5292 55.7977 99.2337 54.8136 98.6559C53.8449 98.0697 53.0673 97.2148 52.5752 96.1951C52.0355 95.1239 51.7656 93.8603 51.7656 92.4043C51.7656 90.9648 52.0355 89.7094 52.5752 88.6382C53.0675 87.6186 53.845 86.7638 54.8136 86.1774C55.7978 85.5998 56.922 85.3044 58.063 85.3233C59.3253 85.3225 60.4035 85.6319 61.2976 86.2516ZM55.8728 89.0511C55.1057 89.8635 54.7221 90.9809 54.7221 92.4031C54.7221 93.8253 55.1057 94.9426 55.8728 95.7551C56.6399 96.5675 57.6642 96.9734 58.9455 96.9725C59.7084 96.9848 60.4603 96.7896 61.1208 96.4077C61.7651 96.0276 62.2907 95.4755 62.6386 94.8133C63.0047 94.0648 63.195 93.2425 63.195 92.4092C63.195 91.576 63.0047 90.7538 62.6386 90.0053C62.2933 89.338 61.7673 88.7812 61.1208 88.3985C60.4603 88.0166 59.7084 87.8213 58.9455 87.8336C57.6634 87.8336 56.6387 88.2394 55.8716 89.0511H55.8728Z" fill="black"/>
<path d="M78.3703 86.2494C79.2477 86.8477 79.9121 87.7095 80.2676 88.7102V85.4967H83.1512V99.3311H80.2676V96.1175C79.9123 97.1183 79.2478 97.9802 78.3703 98.5784C77.4763 99.198 76.3973 99.5078 75.1333 99.5078C73.9923 99.527 72.868 99.2315 71.8839 98.6538C70.9152 98.0675 70.1376 97.2127 69.6455 96.1929C69.1058 95.1217 68.8359 93.8581 68.8359 92.4022C68.8359 90.9626 69.1058 89.7073 69.6455 88.6361C70.1378 87.6165 70.9153 86.7616 71.8839 86.1752C72.8681 85.5977 73.9923 85.3022 75.1333 85.3212C76.3973 85.3203 77.4763 85.6298 78.3703 86.2494ZM72.9456 89.0489C72.1785 89.8614 71.7949 90.9787 71.7949 92.4009C71.7949 93.8231 72.1785 94.9404 72.9456 95.7529C73.7127 96.5654 74.7369 96.9712 76.0182 96.9704C76.7811 96.9826 77.533 96.7874 78.1936 96.4055C78.8379 96.0254 79.3635 95.4733 79.7114 94.8111C80.0775 94.0626 80.2678 93.2403 80.2678 92.4071C80.2678 91.5738 80.0775 90.7516 79.7114 90.0031C79.3661 89.3358 78.8401 88.7791 78.1936 88.3963C77.533 88.0144 76.7811 87.8192 76.0182 87.8314C74.7361 87.8314 73.7115 88.2373 72.9444 89.0489H72.9456Z" fill="black"/>
<path d="M69.6864 63.3307L68.2947 60.9193H67.935V63.3307H66.3789V56.9505H69.035C69.48 56.9371 69.9221 57.0268 70.3267 57.2126C70.6563 57.3674 70.9318 57.6175 71.1177 57.9307C71.297 58.2487 71.3878 58.6089 71.3809 58.9739C71.3928 59.401 71.2561 59.8191 70.9941 60.1567C70.7062 60.5005 70.3101 60.7363 69.8706 60.8254L71.3983 63.3356L69.6864 63.3307ZM67.935 59.8625H68.8991C69.2081 59.8625 69.4355 59.7949 69.5814 59.6598C69.6581 59.5808 69.7173 59.4864 69.755 59.3829C69.7927 59.2794 69.8081 59.169 69.8001 59.0591C69.8061 58.9499 69.7895 58.8405 69.7512 58.738C69.7129 58.6355 69.6538 58.542 69.5777 58.4634C69.4293 58.3192 69.2036 58.2471 68.9003 58.2471H67.935V59.8625Z" fill="black"/>
<path d="M68.7869 66.1168C67.6184 66.1168 66.4762 65.7703 65.5046 65.1211C64.533 64.472 63.7758 63.5493 63.3286 62.4697C62.8815 61.3902 62.7645 60.2022 62.9924 59.0562C63.2204 57.9102 63.7831 56.8575 64.6093 56.0312C65.4356 55.205 66.4883 54.6423 67.6343 54.4143C68.7804 54.1863 69.9683 54.3033 71.0478 54.7505C72.1274 55.1977 73.0501 55.9549 73.6993 56.9265C74.3485 57.898 74.6949 59.0403 74.6949 60.2088C74.693 61.7751 74.0699 63.2767 72.9624 64.3842C71.8548 65.4918 70.3532 66.1149 68.7869 66.1168V66.1168ZM68.7869 54.962C67.7494 54.962 66.7353 55.2697 65.8727 55.8461C65.01 56.4225 64.3377 57.2417 63.9407 58.2002C63.5437 59.1587 63.4398 60.2134 63.6422 61.2309C63.8446 62.2485 64.3442 63.1831 65.0778 63.9167C65.8114 64.6503 66.746 65.1499 67.7636 65.3523C68.7811 65.5547 69.8358 65.4508 70.7943 65.0538C71.7528 64.6568 72.572 63.9845 73.1484 63.1218C73.7248 62.2592 74.0325 61.245 74.0325 60.2076C74.0308 58.8169 73.4776 57.4836 72.4943 56.5002C71.5109 55.5168 70.1776 54.9637 68.7869 54.962V54.962Z" fill="black"/>
</svg>
