<svg width="86" height="76" viewBox="0 0 86 76" fill="none" xmlns="http://www.w3.org/2000/svg">
<path d="M4.45652 56.1532C5.16908 56.1532 5.79106 56.298 6.32246 56.5877C6.86594 56.8774 7.2826 57.2576 7.57246 57.7283V56.298H10.6703V66.3826C10.6703 67.312 10.4831 68.1509 10.1087 68.8992C9.74637 69.6596 9.18478 70.2631 8.42391 70.7097C7.67512 71.1563 6.73913 71.3796 5.61594 71.3796C4.11836 71.3796 2.90459 71.0235 1.97464 70.3114C1.04469 69.6113 0.513285 68.6578 0.380435 67.4508H3.44203C3.53864 67.837 3.76811 68.1388 4.13043 68.356C4.49275 68.5854 4.93961 68.7 5.47101 68.7C6.11111 68.7 6.61835 68.513 6.99275 68.1388C7.37922 67.7767 7.57246 67.1913 7.57246 66.3826V64.9523C7.27053 65.423 6.85386 65.8092 6.32246 66.111C5.79106 66.4007 5.16908 66.5455 4.45652 66.5455C3.62319 66.5455 2.86836 66.3343 2.19203 65.9118C1.5157 65.4773 0.97826 64.8678 0.57971 64.0832C0.193237 63.2866 0 62.3693 0 61.3312C0 60.2932 0.193237 59.3819 0.57971 58.5974C0.97826 57.8128 1.5157 57.2093 2.19203 56.7868C2.86836 56.3644 3.62319 56.1532 4.45652 56.1532ZM7.57246 61.3493C7.57246 60.5769 7.35507 59.9673 6.92029 59.5207C6.49758 59.0741 5.97826 58.8508 5.36232 58.8508C4.74637 58.8508 4.22101 59.0741 3.78623 59.5207C3.36352 59.9552 3.15217 60.5587 3.15217 61.3312C3.15217 62.1037 3.36352 62.7193 3.78623 63.178C4.22101 63.6246 4.74637 63.8479 5.36232 63.8479C5.97826 63.8479 6.49758 63.6246 6.92029 63.178C7.35507 62.7314 7.57246 62.1218 7.57246 61.3493Z" fill="black"/>
<path d="M16.0092 57.9818C16.3716 57.4266 16.8245 56.992 17.3679 56.6782C17.9114 56.3523 18.5153 56.1894 19.1795 56.1894V59.4664H18.3281C17.5551 59.4664 16.9754 59.6354 16.589 59.9733C16.2025 60.2992 16.0092 60.8786 16.0092 61.7114V66.4007H12.9114V56.298H16.0092V57.9818Z" fill="black"/>
<path d="M20.0443 61.3312C20.0443 60.2932 20.2375 59.3819 20.624 58.5974C21.0225 57.8128 21.56 57.2093 22.2363 56.7868C22.9126 56.3644 23.6675 56.1532 24.5008 56.1532C25.2134 56.1532 25.8353 56.298 26.3667 56.5877C26.9102 56.8774 27.3269 57.2576 27.6167 57.7283V56.298H30.7146V66.4007H27.6167V64.9704C27.3148 65.4411 26.8921 65.8213 26.3486 66.111C25.8172 66.4007 25.1952 66.5455 24.4827 66.5455C23.6614 66.5455 22.9126 66.3343 22.2363 65.9118C21.56 65.4773 21.0225 64.8678 20.624 64.0832C20.2375 63.2866 20.0443 62.3693 20.0443 61.3312ZM27.6167 61.3493C27.6167 60.5769 27.3994 59.9673 26.9646 59.5207C26.5419 59.0741 26.0225 58.8508 25.4066 58.8508C24.7907 58.8508 24.2653 59.0741 23.8305 59.5207C23.4078 59.9552 23.1965 60.5587 23.1965 61.3312C23.1965 62.1037 23.4078 62.7193 23.8305 63.178C24.2653 63.6246 24.7907 63.8479 25.4066 63.8479C26.0225 63.8479 26.5419 63.6246 26.9646 63.178C27.3994 62.7314 27.6167 62.1218 27.6167 61.3493Z" fill="black"/>
<path d="M39.1151 56.1894C40.2987 56.1894 41.2407 56.5756 41.9412 57.3481C42.6538 58.1085 43.01 59.1586 43.01 60.4984V66.4007H39.9303V60.9148C39.9303 60.2389 39.7552 59.7138 39.405 59.3397C39.0547 58.9655 38.5837 58.7784 37.9919 58.7784C37.4001 58.7784 36.9291 58.9655 36.5789 59.3397C36.2286 59.7138 36.0535 60.2389 36.0535 60.9148V66.4007H32.9557V56.298H36.0535V57.6378C36.3675 57.1912 36.7902 56.8412 37.3216 56.5877C37.853 56.3221 38.4509 56.1894 39.1151 56.1894Z" fill="black"/>
<path d="M50.2352 58.8689H48.5685V66.4007H45.4707V58.8689H44.3475V56.298H45.4707V56.0083C45.4707 54.7651 45.827 53.8236 46.5395 53.1839C47.2521 52.5321 48.2968 52.2062 49.6736 52.2062C49.9031 52.2062 50.0721 52.2123 50.1808 52.2243V54.8496C49.5891 54.8134 49.1724 54.8979 48.9308 55.1031C48.6893 55.3082 48.5685 55.6764 48.5685 56.2075V56.298H50.2352V58.8689Z" fill="black"/>
<path d="M61.2198 61.1864C61.2198 61.4761 61.2017 61.7778 61.1655 62.0917H54.1546C54.2029 62.7193 54.4022 63.2021 54.7524 63.5401C55.1147 63.866 55.5556 64.0289 56.0749 64.0289C56.8478 64.0289 57.3853 63.703 57.6872 63.0512H60.9843C60.8152 63.7151 60.5073 64.3126 60.0604 64.8436C59.6256 65.3747 59.0761 65.7911 58.4118 66.0929C57.7476 66.3946 57.0048 66.5455 56.1836 66.5455C55.1932 66.5455 54.3116 66.3343 53.5387 65.9118C52.7657 65.4894 52.1618 64.8859 51.7271 64.1013C51.2923 63.3168 51.0749 62.3994 51.0749 61.3493C51.0749 60.2992 51.2862 59.3819 51.7089 58.5974C52.1437 57.8128 52.7476 57.2093 53.5205 56.7868C54.2935 56.3644 55.1812 56.1532 56.1836 56.1532C57.1618 56.1532 58.0314 56.3583 58.7923 56.7687C59.5531 57.1791 60.1449 57.7645 60.5676 58.5249C61.0024 59.2854 61.2198 60.1725 61.2198 61.1864ZM58.0495 60.3717C58.0495 59.8406 57.8684 59.4181 57.506 59.1043C57.1437 58.7905 56.6908 58.6336 56.1473 58.6336C55.628 58.6336 55.1872 58.7844 54.8249 59.0862C54.4746 59.3879 54.2573 59.8164 54.1727 60.3717H58.0495Z" fill="black"/>
<path d="M65.9519 57.9818C66.3142 57.4266 66.7671 56.992 67.3106 56.6782C67.8541 56.3523 68.4579 56.1894 69.1222 56.1894V59.4664H68.2707C67.4978 59.4664 66.9181 59.6354 66.5316 59.9733C66.1451 60.2992 65.9519 60.8786 65.9519 61.7114V66.4007H62.8541V56.298H65.9519V57.9818Z" fill="black"/>
<path d="M72.1608 55.2479C71.6174 55.2479 71.1705 55.091 70.8203 54.7772C70.4821 54.4513 70.313 54.053 70.313 53.5822C70.313 53.0994 70.4821 52.7011 70.8203 52.3873C71.1705 52.0614 71.6174 51.8984 72.1608 51.8984C72.6922 51.8984 73.127 52.0614 73.4652 52.3873C73.8154 52.7011 73.9905 53.0994 73.9905 53.5822C73.9905 54.053 73.8154 54.4513 73.4652 54.7772C73.127 55.091 72.6922 55.2479 72.1608 55.2479ZM73.7007 56.298V66.4007H70.6029V56.298H73.7007Z" fill="black"/>
<path d="M75.3297 61.3312C75.3297 60.2932 75.5229 59.3819 75.9094 58.5974C76.308 57.8128 76.8454 57.2093 77.5217 56.7868C78.1981 56.3644 78.9529 56.1532 79.7862 56.1532C80.4988 56.1532 81.1208 56.298 81.6522 56.5877C82.1957 56.8774 82.6123 57.2576 82.9022 57.7283V56.298H86V66.4007H82.9022V64.9704C82.6002 65.4411 82.1775 65.8213 81.6341 66.111C81.1027 66.4007 80.4807 66.5455 79.7681 66.5455C78.9469 66.5455 78.1981 66.3343 77.5217 65.9118C76.8454 65.4773 76.308 64.8678 75.9094 64.0832C75.5229 63.2866 75.3297 62.3693 75.3297 61.3312ZM82.9022 61.3493C82.9022 60.5769 82.6848 59.9673 82.25 59.5207C81.8273 59.0741 81.308 58.8508 80.692 58.8508C80.0761 58.8508 79.5507 59.0741 79.1159 59.5207C78.6932 59.9552 78.4819 60.5587 78.4819 61.3312C78.4819 62.1037 78.6932 62.7193 79.1159 63.178C79.5507 63.6246 80.0761 63.8479 80.692 63.8479C81.308 63.8479 81.8273 63.6246 82.25 63.178C82.6848 62.7314 82.9022 62.1218 82.9022 61.3493Z" fill="black"/>
<path d="M85.9816 20.2856V46.525C65.0571 42.3779 48.3477 26.5063 42.9896 6.04517C37.6302 26.5088 20.9245 42.3754 0 46.525V20.2856C16.7354 20.2856 31.742 12.9047 41.9516 1.2209C42.3034 0.818874 42.6493 0.411908 42.9896 0C43.3265 0.411908 43.6725 0.818874 44.0276 1.2209C54.2334 12.9059 69.2462 20.2856 85.9792 20.2856H85.9816Z" fill="black"/>
<path d="M78.5444 72.561C78.5444 72.7737 78.4956 72.969 78.398 73.1468C78.3003 73.3212 78.1504 73.4624 77.9481 73.5705C77.7459 73.6786 77.4948 73.7326 77.1949 73.7326H76.6405V75.0507H75.7461V71.3789H77.1949C77.4878 71.3789 77.7354 71.4295 77.9377 71.5306C78.1399 71.6317 78.2916 71.7712 78.3927 71.949C78.4938 72.1269 78.5444 72.3309 78.5444 72.561ZM77.1269 73.0213C77.2978 73.0213 77.4251 72.9812 77.5088 72.901C77.5925 72.8208 77.6343 72.7075 77.6343 72.561C77.6343 72.4145 77.5925 72.3012 77.5088 72.221C77.4251 72.1408 77.2978 72.1007 77.1269 72.1007H76.6405V73.0213H77.1269Z" fill="black"/>
<path d="M79.9045 72.0955V72.8382H81.1022V73.5286H79.9045V74.3341H81.2592V75.0507H79.01V71.3789H81.2592V72.0955H79.9045Z" fill="black"/>
<path d="M85.9981 71.3789V75.0507H85.1036V72.8487L84.2825 75.0507H83.5606L82.7342 72.8434V75.0507H81.8398V71.3789H82.8964L83.9268 73.9209L84.9467 71.3789H85.9981Z" fill="black"/>
</svg>
