<svg width="37" height="30" viewBox="0 0 37 30" fill="none" xmlns="http://www.w3.org/2000/svg">
<g opacity="0.2">
<mask id="mask0" mask-type="alpha" maskUnits="userSpaceOnUse" x="0" y="0" width="37" height="30">
<path fill-rule="evenodd" clip-rule="evenodd" d="M34.4773 5.29412H28.263L25.6477 1.18235C25.18 0.443565 24.3907 -0.000330788 23.5455 1.84952e-07H13.4545C12.6093 -0.000330788 11.82 0.443565 11.3523 1.18235L8.73705 5.29412H8.40909V4.41177C8.40909 2.94983 7.27963 1.76471 5.88636 1.76471H5.04545C3.65219 1.76471 2.52273 2.94983 2.52273 4.41177V5.29412C1.12946 5.29412 0 6.47925 0 7.94118V27.3529C0 28.8149 1.12946 30 2.52273 30H34.4773C35.8705 30 37 28.8149 37 27.3529V7.94118C37 6.47925 35.8705 5.29412 34.4773 5.29412ZM5.0459 4.4113H5.88681V5.29365H5.0459V4.4113ZM34.477 27.3529H2.52246V7.9411H10.0906L13.4543 2.64698H23.5452L26.9088 7.9411H34.477V27.3529ZM18.4999 7.93994C13.8557 7.93994 10.0908 11.8904 10.0908 16.7635C10.0908 21.6366 13.8557 25.587 18.4999 25.587C23.1441 25.587 26.909 21.6366 26.909 16.7635C26.909 11.8904 23.1441 7.93994 18.4999 7.93994ZM18.4996 22.9403C15.2487 22.9403 12.6133 20.175 12.6133 16.7639C12.6133 13.3527 15.2487 10.5874 18.4996 10.5874C21.7506 10.5874 24.386 13.3527 24.386 16.7639C24.386 20.175 21.7506 22.9403 18.4996 22.9403ZM29.8522 13.235C30.5488 13.235 31.1135 12.6424 31.1135 11.9114C31.1135 11.1805 30.5488 10.5879 29.8522 10.5879C29.1556 10.5879 28.5908 11.1805 28.5908 11.9114C28.5908 12.6424 29.1556 13.235 29.8522 13.235Z" fill="white"/>
</mask>
<g mask="url(#mask0)">
<rect y="-3.86035" width="37.8409" height="38.6029" fill="black"/>
</g>
</g>
</svg>
