<svg width="26" height="22" viewBox="0 0 26 22" fill="none" xmlns="http://www.w3.org/2000/svg">
<path fill-rule="evenodd" clip-rule="evenodd" d="M25.2699 0.891892L25.2699 21.1081C25.2699 21.6007 24.8706 22 24.378 22L10.1077 22C9.61513 22 9.21582 21.6007 9.21582 21.1081L9.21582 16.6486C9.21582 16.1561 9.61513 15.7568 10.1077 15.7568C10.6003 15.7568 10.9996 16.1561 10.9996 16.6486L10.9996 20.2162L23.4861 20.2162L23.4861 1.78378L10.9996 1.78378L10.9996 5.94595C10.9996 6.43852 10.6003 6.83784 10.1077 6.83784C9.61513 6.83784 9.21582 6.43852 9.21582 5.94595L9.21582 0.891892C9.21582 0.399314 9.61513 -1.14448e-07 10.1077 -1.08574e-07L24.378 6.15977e-08C24.8706 6.74716e-08 25.2699 0.399314 25.2699 0.891892Z" fill="black"/>
<path fill-rule="evenodd" clip-rule="evenodd" d="M18.4324 10.999C18.4324 11.4916 18.0331 11.8909 17.5405 11.8909L3.40108 11.8909L6.20757 14.1741C6.59014 14.4844 6.6487 15.0461 6.33838 15.4287C6.02805 15.8113 5.46635 15.8698 5.08378 15.5595L0.237838 11.6114C0.142196 11.4202 0.0626423 11.2213 5.65474e-08 11.0168C0.0884336 10.7756 0.202034 10.5445 0.338919 10.3271L5.09568 6.46222C5.27842 6.31352 5.51286 6.24373 5.74717 6.26828C5.98149 6.29282 6.19637 6.40969 6.34433 6.59303C6.49336 6.77675 6.56331 7.01214 6.53878 7.24743C6.51424 7.48271 6.39724 7.69861 6.21351 7.84763L3.40703 10.1309L17.5405 10.1309C18.024 10.1307 18.4195 10.5157 18.4324 10.999Z" fill="black"/>
</svg>
