<svg width="24" height="20" viewBox="0 0 24 20" fill="none" xmlns="http://www.w3.org/2000/svg">
<path d="M22.0148 6.62222H1.21484H22.0148ZM1.21484 17.0222V3.15556C1.21484 2.84908 1.33659 2.55516 1.5533 2.33845C1.77001 2.12175 2.06393 2 2.3704 2H20.8593C21.1658 2 21.4597 2.12175 21.6764 2.33845C21.8931 2.55516 22.0148 2.84908 22.0148 3.15556V17.0222C22.0148 17.3287 21.8931 17.6226 21.6764 17.8393C21.4597 18.056 21.1658 18.1778 20.8593 18.1778H2.3704C2.06393 18.1778 1.77001 18.056 1.5533 17.8393C1.33659 17.6226 1.21484 17.3287 1.21484 17.0222ZM10.4593 13.5556H5.83707H10.4593Z" stroke="white" stroke-width="2.31111" stroke-linecap="round" stroke-linejoin="round"/>
</svg>
