<svg width="22" height="19" viewBox="0 0 22 19" fill="none" xmlns="http://www.w3.org/2000/svg">
<path d="M20.593 17.0719H1.21484V2H20.593V17.0719ZM20.593 2H16.2867C16.2867 3.14209 16.7404 4.2374 17.548 5.04498C18.3556 5.85256 19.4509 6.30625 20.593 6.30625V2ZM1.21484 6.30625C2.35693 6.30625 3.45224 5.85256 4.25982 5.04498C5.0674 4.2374 5.52109 3.14209 5.52109 2H1.21484V6.30625ZM20.593 12.7656C19.4509 12.7656 18.3556 13.2193 17.548 14.0269C16.7404 14.8345 16.2867 15.9298 16.2867 17.0719H20.593V12.7656ZM1.21484 17.0719H5.52109C5.52109 15.9298 5.0674 14.8345 4.25982 14.0269C3.45224 13.2193 2.35693 12.7656 1.21484 12.7656V17.0719ZM10.9039 7.38281C10.4781 7.38281 10.0618 7.50909 9.70769 7.74568C9.35361 7.98227 9.07764 8.31854 8.91468 8.71197C8.75171 9.1054 8.70907 9.53833 8.79215 9.95599C8.87523 10.3737 9.0803 10.7573 9.38142 11.0584C9.68254 11.3595 10.0662 11.5646 10.4839 11.6477C10.9015 11.7308 11.3344 11.6881 11.7279 11.5252C12.1213 11.3622 12.4576 11.0862 12.6942 10.7321C12.9308 10.3781 13.057 9.96179 13.057 9.53594C13.057 8.96489 12.8302 8.41724 12.4264 8.01345C12.0226 7.60966 11.475 7.38281 10.9039 7.38281Z" stroke="white" stroke-width="2.15313" stroke-linecap="round" stroke-linejoin="round"/>
</svg>
