<svg width="25" height="25" viewBox="0 0 25 25" fill="none" xmlns="http://www.w3.org/2000/svg">
<path fill-rule="evenodd" clip-rule="evenodd" d="M12.5 7.9541C9.98966 7.9541 7.95459 9.98917 7.95459 12.4996C7.95459 15.0099 9.98966 17.045 12.5 17.045C15.0104 17.045 17.0455 15.0099 17.0455 12.4996C17.0455 9.98917 15.0104 7.9541 12.5 7.9541ZM12.5 15.3405C10.9311 15.3405 9.65913 14.0685 9.65913 12.4996C9.65913 10.9306 10.9311 9.65865 12.5 9.65865C14.069 9.65865 15.3409 10.9306 15.3409 12.4996C15.3409 14.0685 14.069 15.3405 12.5 15.3405Z" fill="black"/>
<path fill-rule="evenodd" clip-rule="evenodd" d="M23.2954 9.09091H22.7273C22.5725 8.60245 22.3826 8.12583 22.1591 7.66477L22.5511 7.27272C23.2158 6.60723 23.2158 5.52913 22.5511 4.86363L20.142 2.45454C19.4765 1.78988 18.3984 1.78988 17.7329 2.45454L17.3295 2.84091C16.8685 2.61739 16.3919 2.4275 15.9034 2.27273V1.70454C15.9034 0.763151 15.1403 0 14.1989 0H10.7898C9.84837 0 9.08522 0.763151 9.08522 1.70454V2.27273C8.59677 2.4275 8.12015 2.61739 7.65909 2.84091L7.26704 2.44886C6.60155 1.7842 5.52345 1.7842 4.85795 2.44886L2.44886 4.85795C1.7842 5.52345 1.7842 6.60155 2.44886 7.26704L2.84091 7.65909C2.61737 8.12014 2.42748 8.59677 2.27273 9.08522H1.70454C0.763151 9.08522 0 9.84837 0 10.7898V14.1989C0 15.1403 0.763151 15.9034 1.70454 15.9034H2.27273C2.42748 16.3919 2.61737 16.8685 2.84091 17.3295L2.44886 17.7216C1.7842 18.3871 1.7842 19.4652 2.44886 20.1307L4.85795 22.5398C5.52345 23.2044 6.60155 23.2044 7.26704 22.5398L7.67045 22.1591C8.13152 22.3826 8.60814 22.5725 9.09659 22.7273V23.2954C9.09659 24.2368 9.85974 25 10.8011 25H14.2102C15.1516 25 15.9148 24.2368 15.9148 23.2954V22.7273C16.4032 22.5725 16.8798 22.3826 17.3409 22.1591L17.7329 22.5511C18.3984 23.2158 19.4765 23.2158 20.142 22.5511L22.5511 20.142C23.2158 19.4765 23.2158 18.3984 22.5511 17.7329L22.1591 17.3409C22.3826 16.8798 22.5725 16.4032 22.7273 15.9148H23.2954C24.2368 15.9148 25 15.1516 25 14.2102V10.8011C25.0015 10.3481 24.8226 9.91306 24.5028 9.59216C24.1829 9.27127 23.7485 9.0909 23.2954 9.09091ZM23.2954 14.2045H21.4261C21.1957 15.4257 20.7161 16.5862 20.017 17.6136L21.3352 18.9318L18.9261 21.3409L17.6079 20.0227C16.5806 20.7219 15.42 21.2016 14.1989 21.4318V23.2954H10.7898V21.4261C9.56859 21.1959 8.40803 20.7162 7.38068 20.017L6.0625 21.3352L3.65341 18.9261L4.97159 17.6079C4.27256 16.5805 3.79288 15.42 3.5625 14.1989H1.70454V10.7898H3.57386C3.80425 9.56863 4.28393 8.40811 4.98295 7.38068L3.66477 6.0625L6.07386 3.65341L7.39204 4.97159C8.41947 4.27256 9.58 3.79288 10.8011 3.5625V1.70454H14.2102V3.57386C15.4314 3.80425 16.5919 4.28393 17.6193 4.98295L18.9375 3.66477L21.3466 6.07386L20.017 7.38636C20.7161 8.41379 21.1957 9.57431 21.4261 10.7955H23.2954V14.2045Z" fill="black"/>
</svg>
