<svg width="24" height="24" viewBox="0 0 24 24" fill="none" xmlns="http://www.w3.org/2000/svg">
<path d="M11.8245 2.10187C14.9818 2.10187 15.3558 2.11372 16.6026 2.16985C17.7555 2.22175 18.3816 2.41179 18.7983 2.57149C19.3502 2.78311 19.7441 3.03593 20.1579 3.44411C20.5716 3.85229 20.8279 4.24092 21.0424 4.78538C21.2043 5.19647 21.3969 5.81413 21.4496 6.95143C21.5064 8.18151 21.5185 8.55043 21.5185 11.6652C21.5185 14.7799 21.5064 15.1488 21.4496 16.3789C21.3969 17.5162 21.2043 18.1339 21.0424 18.545C20.8279 19.0894 20.5716 19.478 20.1579 19.8862C19.7441 20.2944 19.3502 20.5472 18.7983 20.7588C18.3816 20.9185 17.7555 21.1086 16.6026 21.1605C15.3559 21.2166 14.982 21.2285 11.8245 21.2285C8.66702 21.2285 8.29306 21.2166 7.0464 21.1605C5.89352 21.1086 5.26742 20.9185 4.85076 20.7588C4.29882 20.5472 3.90487 20.2944 3.49112 19.8862C3.07737 19.478 2.82109 19.0894 2.60663 18.545C2.44469 18.1339 2.25206 17.5162 2.19945 16.3789C2.14256 15.1488 2.13054 14.7799 2.13054 11.6652C2.13054 8.55043 2.14256 8.18151 2.19945 6.95147C2.25206 5.81413 2.44469 5.19647 2.60663 4.78538C2.82109 4.24092 3.07737 3.85229 3.49112 3.44411C3.90487 3.03593 4.29882 2.78311 4.85076 2.57149C5.26742 2.41179 5.89352 2.22175 7.04636 2.16985C8.29325 2.11372 8.6672 2.10187 11.8245 2.10187ZM11.8245 0C8.61313 0 8.2105 0.0134284 6.94929 0.0701982C5.69066 0.126875 4.83114 0.324041 4.07897 0.612428C3.3014 0.910539 2.64197 1.30941 1.98461 1.95791C1.32725 2.60641 0.922933 3.25695 0.620749 4.02403C0.328422 4.76607 0.128562 5.614 0.0711104 6.85567C0.0135649 8.09983 0 8.49708 0 11.6652C0 14.8333 0.0135649 15.2305 0.0711104 16.4747C0.128562 17.7163 0.328422 18.5643 0.620749 19.3063C0.922933 20.0733 1.32725 20.7239 1.98461 21.3724C2.64197 22.0209 3.3014 22.4198 4.07897 22.7179C4.83114 23.0063 5.69066 23.2035 6.94929 23.2601C8.2105 23.3169 8.61313 23.3303 11.8245 23.3303C15.0359 23.3303 15.4386 23.3169 16.6997 23.2601C17.9583 23.2035 18.8179 23.0063 19.57 22.7179C20.3476 22.4198 21.007 22.0209 21.6644 21.3724C22.3218 20.7239 22.7261 20.0734 23.0283 19.3063C23.3206 18.5643 23.5204 17.7163 23.5779 16.4747C23.6354 15.2305 23.6491 14.8333 23.6491 11.6652C23.6491 8.49708 23.6354 8.09983 23.5779 6.85567C23.5204 5.614 23.3206 4.76607 23.0283 4.02403C22.7261 3.25695 22.3218 2.60641 21.6644 1.95791C21.007 1.30941 20.3476 0.910539 19.57 0.612428C18.8179 0.324041 17.9583 0.126875 16.6997 0.0701982C15.4386 0.0134284 15.0359 0 11.8245 0ZM11.8245 5.67494C8.471 5.67494 5.75243 8.35687 5.75243 11.6652C5.75243 14.9735 8.471 17.6554 11.8245 17.6554C15.178 17.6554 17.8966 14.9735 17.8966 11.6652C17.8966 8.35687 15.178 5.67494 11.8245 5.67494ZM11.8245 15.5536C9.64768 15.5536 7.88297 13.8126 7.88297 11.6652C7.88297 9.51769 9.64768 7.77676 11.8245 7.77676C14.0013 7.77676 15.766 9.51769 15.766 11.6652C15.766 13.8126 14.0013 15.5536 11.8245 15.5536ZM19.5554 5.43827C19.5554 6.21138 18.9201 6.83812 18.1365 6.83812C17.3528 6.83812 16.7175 6.21138 16.7175 5.43827C16.7175 4.66517 17.3528 4.03848 18.1365 4.03848C18.9201 4.03848 19.5554 4.66517 19.5554 5.43827Z" fill="black"/>
</svg>
