<svg width="25" height="24" viewBox="0 0 25 24" fill="none" xmlns="http://www.w3.org/2000/svg">
<path fill-rule="evenodd" clip-rule="evenodd" d="M12.7718 0C6.24129 0 0.947266 5.22266 0.947266 11.6651C0.947266 18.1076 6.24129 23.3303 12.7718 23.3303C19.3023 23.3303 24.5963 18.1076 24.5963 11.6651C24.5963 5.22266 19.3023 0 12.7718 0ZM22.957 11.1349H19.2215C19.0603 7.65127 17.5607 4.0881 15.0507 1.85052C19.4904 2.85902 22.7159 6.64676 22.957 11.1349ZM11.6968 2.7095V11.1349H7.93449C8.09035 7.81034 9.41793 4.56531 11.6968 2.7095ZM11.6968 12.7256V20.536C9.57379 18.6907 8.24085 15.6949 7.93449 12.7256H11.6968ZM13.3093 20.7799V12.7256H17.6091C17.2544 15.7426 15.6688 18.924 13.3093 20.7799ZM13.3093 11.1349V2.48149C15.8462 4.33201 17.4317 7.78383 17.6091 11.1349H13.3093ZM10.165 1.93535C7.81087 4.14113 6.46717 7.60886 6.32205 11.1349H2.58657C2.82308 6.77153 5.88386 3.05602 10.165 1.93535ZM2.64032 12.7256H6.34355C6.64454 15.9706 8.05811 19.274 10.337 21.4321C6.16364 20.421 3.07837 16.9407 2.61882 12.7256H2.64032ZM14.9486 21.5116C17.4023 19.1855 18.9281 16.0678 19.2484 12.7256H23.0108C22.5162 17.0665 19.2589 20.6068 14.9271 21.5116H14.9486Z" fill="black"/>
</svg>
