<svg width="18" height="19" viewBox="0 0 18 19" fill="none" xmlns="http://www.w3.org/2000/svg">
<path d="M4.02878 18.5C3.83157 18.5 3.63573 18.4358 3.4686 18.3097C3.15727 18.0742 3.01183 17.6695 3.09657 17.279L4.25455 11.9563L0.327393 8.36244C0.0387204 8.09948 -0.0715576 7.68303 0.0469603 7.30198C0.165478 6.92165 0.487935 6.65238 0.869719 6.61555L6.06583 6.1233L8.12019 1.10661C8.27167 0.73803 8.61664 0.5 8.99994 0.5C9.38323 0.5 9.72821 0.73803 9.87969 1.10575L11.934 6.1233L17.1293 6.61555C17.5119 6.65152 17.8344 6.92165 17.9529 7.30198C18.0714 7.68232 17.9618 8.09948 17.6732 8.36244L13.746 11.9555L14.904 17.2782C14.9889 17.6695 14.8433 18.0742 14.5321 18.309C14.2216 18.5437 13.8075 18.5618 13.4805 18.3567L8.99994 15.5627L4.51933 18.3583C4.36785 18.4521 4.19907 18.5 4.02878 18.5ZM6.02614 6.22032C6.02614 6.22032 6.02614 6.22118 6.02532 6.22189L6.02614 6.22032ZM11.9722 6.21802L11.9731 6.2196C11.9731 6.21874 11.9731 6.21874 11.9722 6.21802Z" fill="#FFCF55"/>
</svg>
