<svg width="22" height="25" viewBox="0 0 22 25" fill="none" xmlns="http://www.w3.org/2000/svg">
<path fill-rule="evenodd" clip-rule="evenodd" d="M21.1538 3.74087H16.3138C15.4787 1.48965 13.3627 0 11 0C8.63729 0 6.52127 1.48965 5.68615 3.74087H0.846154C0.378836 3.74087 0 4.12674 0 4.60273C0 5.07872 0.378836 5.46458 0.846154 5.46458H1.41026V23.2763C1.41026 24.2283 2.16793 25 3.10256 25H18.3333C19.268 25 20.0256 24.2283 20.0256 23.2763V5.46458H21.1538C21.6212 5.46458 22 5.07872 22 4.60273C22 4.12674 21.6212 3.74087 21.1538 3.74087ZM11 1.72987C12.54 1.72987 13.8769 2.30444 14.5369 3.74087H7.46308C8.12308 2.2987 9.46 1.72987 11 1.72987ZM18.3333 23.2763H16.0769V13.5086C16.0769 13.0326 15.6981 12.6467 15.2308 12.6467C14.7635 12.6467 14.3846 13.0326 14.3846 13.5086V23.2763H11.5641V10.0612C11.5641 9.58516 11.1853 9.19929 10.7179 9.19929C10.2506 9.19929 9.8718 9.58516 9.8718 10.0612V23.2763H7.05128V13.5086C7.05128 13.0326 6.67245 12.6467 6.20513 12.6467C5.73781 12.6467 5.35897 13.0326 5.35897 13.5086V23.2763H3.10256V5.46458H18.3333V23.2763Z" fill="black"/>
</svg>
