<svg width="28" height="13" viewBox="0 0 28 13" fill="none" xmlns="http://www.w3.org/2000/svg">
<path fill-rule="evenodd" clip-rule="evenodd" d="M14.2664 1.13296C14.2251 1.08617 14.172 1.04856 14.1094 1.02513C14.0639 1.00807 14.0171 0.999991 13.9712 1C13.9252 0.999991 13.8785 1.00807 13.8329 1.02513C13.7704 1.04856 13.7173 1.08617 13.6759 1.13296C13.6544 1.15723 13.6357 1.18445 13.6204 1.21432C13.6126 1.22959 13.6057 1.24536 13.5999 1.26152C12.6332 3.83744 8.80813 9.49254 1.30581 11.2215C1.09363 11.2704 0.961259 11.482 1.01016 11.6942C1.05905 11.9064 1.2707 12.0387 1.48288 11.9898C8.57177 10.3562 12.5233 5.36244 13.9712 2.38491C15.419 5.36244 19.3706 10.3562 26.4595 11.9898C26.6716 12.0387 26.8833 11.9064 26.9322 11.6942C26.9811 11.482 26.8487 11.2704 26.6365 11.2215C19.1342 9.49254 15.3092 3.83744 14.3424 1.26152C14.3366 1.24536 14.3298 1.22959 14.3219 1.21432C14.3067 1.18445 14.2879 1.15723 14.2664 1.13296Z" fill="black" stroke="black" stroke-width="0.8" stroke-linecap="round" stroke-linejoin="round"/>
</svg>
