<svg width="18" height="14" viewBox="0 0 18 14" fill="none" xmlns="http://www.w3.org/2000/svg">
<path fill-rule="evenodd" clip-rule="evenodd" d="M0 0.85C0 0.380558 0.380558 0 0.85 0H7.15C7.61944 0 8 0.380558 8 0.85C8 1.31944 7.61944 1.7 7.15 1.7H0.85C0.380558 1.7 0 1.31944 0 0.85ZM0 12.85C0 12.3806 0.380558 12 0.85 12H10.15C10.6194 12 11 12.3806 11 12.85C11 13.3194 10.6194 13.7 10.15 13.7H0.850001C0.380558 13.7 0 13.3194 0 12.85ZM0.85 6C0.380558 6 0 6.38056 0 6.85C0 7.31944 0.380558 7.7 0.850001 7.7H17.15C17.6194 7.7 18 7.31944 18 6.85C18 6.38056 17.6194 6 17.15 6H0.85Z" fill="black"/>
</svg>
