<svg width="25" height="25" viewBox="0 0 25 25" fill="none" xmlns="http://www.w3.org/2000/svg">
<path fill-rule="evenodd" clip-rule="evenodd" d="M6.78258 10.7501C7.95939 10.7596 9.02089 10.0468 9.45393 8.95608C9.51662 8.80939 9.59901 8.67189 9.69885 8.54732C9.82424 8.41859 9.97844 8.32132 10.1488 8.26346C10.6843 8.06069 11.1575 7.72215 11.5215 7.28131C11.8554 6.83344 12.0208 6.28283 11.9886 5.72576C12.0693 5.05463 11.8625 4.38066 11.419 3.86932C10.9459 3.39953 10.304 3.13787 9.6362 3.14264C8.63101 3.22455 7.67778 3.62209 6.91359 4.27808C6.19022 4.81741 4.50994 6.24806 4.51564 7.92283C4.52134 9.5976 5.48963 10.7501 6.78258 10.7501ZM7.92175 5.6406C8.40374 5.21882 8.99658 4.94307 9.6305 4.8458C9.84351 4.84081 10.0493 4.92286 10.2001 5.07288C10.3164 5.44248 10.3164 5.83873 10.2001 6.20832C9.72733 6.77604 9.23749 6.60005 8.49133 7.34376C7.74518 8.08747 7.92175 9.04691 6.78258 9.04691C6.4921 9.04691 6.213 8.47919 6.213 7.91147C6.2073 7.1848 7.11864 6.23671 7.92175 5.6406Z" fill="black"/>
<path fill-rule="evenodd" clip-rule="evenodd" d="M22.9474 5.60652L23.3802 5.03881C24.3029 4.0823 24.2826 2.56414 23.3347 1.6325C22.3436 0.644667 20.9082 1.17832 19.9172 2.14912L19.7406 2.27402C15.0293 -1.02893 8.66568 -0.705204 4.31624 3.05869C-0.0331975 6.82257 -1.2481 13.0571 1.37152 18.1701C0.522856 19.7276 0.0545224 21.4625 0.00451567 23.2342C-0.010031 24.0129 0.49393 24.7073 1.24051 24.9373C1.39668 24.9784 1.55746 24.9993 1.71896 24.9998C2.2846 25.0094 2.81149 24.7143 3.09736 24.2277C3.49723 23.894 4.01294 23.7308 4.53271 23.7735C5.25379 23.7785 5.97165 23.6771 6.66295 23.4726C11.7131 26.1045 17.9091 25.0084 21.742 20.8049C25.575 16.6015 26.0796 10.3496 22.9701 5.58949L22.9474 5.60652ZM21.0563 3.40378C21.2439 3.22773 21.4524 3.07521 21.6772 2.9496C21.8139 2.8758 22.0588 2.76793 22.1272 2.83606C22.2838 2.97296 22.3737 3.17055 22.3737 3.37823C22.3737 3.58591 22.2838 3.7835 22.1272 3.9204L22.0759 3.97717C22.0132 4.05665 15.8105 11.9252 13.8625 13.793C12.7183 14.8346 11.3566 15.6102 9.8754 16.0639L8.95268 15.1442C9.62542 13.7667 10.4324 12.4584 11.362 11.2383C13.0708 9.15476 20.8684 3.57409 20.9481 3.51732L21.0563 3.40378ZM1.65631 12.4532C1.67038 8.5305 3.81991 4.92463 7.26971 3.03663C10.7195 1.14864 14.9257 1.27619 18.254 3.36971C15.782 5.18641 11.362 8.53027 10.0349 10.1823C8.93461 11.6277 7.98962 13.1842 7.21545 14.8263C6.92395 14.7597 6.62595 14.7254 6.3269 14.7241C4.94203 14.7767 3.63915 15.3922 2.72143 16.4272C2.64169 16.5067 2.56764 16.5919 2.4936 16.677C1.93029 15.3402 1.64543 13.9031 1.65631 12.4532ZM1.69048 23.2398C1.69048 23.2398 1.69048 19.8335 3.93464 17.5627C4.54082 16.8628 5.40639 16.4386 6.33259 16.3875C6.92032 16.3898 7.48792 16.6012 7.93312 16.9836C9.44252 18.488 9.24317 19.6519 8.50271 20.3899C7.47177 21.4893 6.02535 22.1072 4.51562 22.0931C2.51068 22.1044 1.69048 23.2398 1.69048 23.2398ZM12.4784 23.2398C11.1575 23.2391 9.84822 22.9946 8.61662 22.5188C9.00278 22.2454 9.36483 21.9396 9.69883 21.6048C10.7908 20.5836 11.0886 18.9729 10.4336 17.6308C12.1425 17.1026 13.7125 16.2029 15.0301 14.9966C16.4541 13.6284 19.8089 9.50107 21.8196 6.99743C23.7822 10.3338 23.8025 14.4622 21.8728 17.8176C19.943 21.1729 16.3587 23.2418 12.4784 23.2398Z" fill="black"/>
<path d="M13.9025 21.5368C14.6889 21.5368 15.3264 20.9014 15.3264 20.1175C15.3264 19.3337 14.6889 18.6982 13.9025 18.6982C13.116 18.6982 12.4785 19.3337 12.4785 20.1175C12.4785 20.9014 13.116 21.5368 13.9025 21.5368Z" fill="black"/>
<path d="M18.4591 18.698C19.2455 18.698 19.8831 18.0625 19.8831 17.2787C19.8831 16.4948 19.2455 15.8594 18.4591 15.8594C17.6727 15.8594 17.0352 16.4948 17.0352 17.2787C17.0352 18.0625 17.6727 18.698 18.4591 18.698Z" fill="black"/>
<path d="M20.7365 14.156C21.5229 14.156 22.1604 13.5205 22.1604 12.7367C22.1604 11.9528 21.5229 11.3174 20.7365 11.3174C19.95 11.3174 19.3125 11.9528 19.3125 12.7367C19.3125 13.5205 19.95 14.156 20.7365 14.156Z" fill="black"/>
</svg>
