<svg width="25" height="25" viewBox="0 0 25 25" fill="none" xmlns="http://www.w3.org/2000/svg">
<path fill-rule="evenodd" clip-rule="evenodd" d="M12.5 0C5.59644 0 0 5.59644 0 12.5C0 19.4036 5.59644 25 12.5 25C19.4036 25 25 19.4036 25 12.5C25 5.59644 19.4036 0 12.5 0ZM12.5 23.2955C6.53784 23.2955 1.70455 18.4622 1.70455 12.5C1.70455 6.53784 6.53784 1.70455 12.5 1.70455C18.4622 1.70455 23.2955 6.53784 23.2955 12.5C23.2955 15.3631 22.1581 18.109 20.1335 20.1335C18.109 22.1581 15.3631 23.2955 12.5 23.2955Z" fill="black"/>
<path fill-rule="evenodd" clip-rule="evenodd" d="M17.0449 11.9323H13.6358V8.52317C13.6358 8.05247 13.2543 7.6709 12.7836 7.6709C12.3129 7.6709 11.9313 8.05247 11.9313 8.52317V11.9323H8.52219C8.0515 11.9323 7.66992 12.3138 7.66992 12.7845C7.66992 13.2552 8.0515 13.6368 8.52219 13.6368H11.9313V17.0459C11.9313 17.5166 12.3129 17.8982 12.7836 17.8982C13.2543 17.8982 13.6358 17.5166 13.6358 17.0459V13.6368H17.0449C17.5156 13.6368 17.8972 13.2552 17.8972 12.7845C17.8972 12.3138 17.5156 11.9323 17.0449 11.9323Z" fill="black"/>
</svg>
