<svg width="20" height="20" viewBox="0 0 20 20" fill="none" xmlns="http://www.w3.org/2000/svg">
<mask id="mask0_3749_1796" style="mask-type:alpha" maskUnits="userSpaceOnUse" x="0" y="1" width="20" height="19">
<path fill-rule="evenodd" clip-rule="evenodd" d="M14.5238 6.84614C14.5238 10.0713 12.3857 12.6923 9.7619 12.6923C7.14286 12.6923 5 10.0713 5 6.84614C5 3.62102 7.13809 1 9.7619 1C12.3857 1 14.5238 3.62102 14.5238 6.84614ZM13.0952 6.84614C13.0952 4.41025 11.6048 2.46153 9.7619 2.46153C7.91905 2.46153 6.42857 4.41025 6.42857 6.84614C6.42857 9.28203 7.91905 11.2307 9.7619 11.2307C11.6048 11.2307 13.0952 9.28203 13.0952 6.84614ZM13.3333 12.8628C13.3728 12.4592 13.7246 12.1647 14.119 12.2051C14.1714 12.2051 19.5238 12.8287 19.5238 18.7771C19.5238 19.1807 19.204 19.5079 18.8095 19.5079H0.714286C0.319797 19.5079 0 19.1807 0 18.7771C0 12.8287 5.35238 12.2051 5.40476 12.2051C5.79925 12.1647 6.15103 12.4592 6.19048 12.8628C6.22993 13.2664 5.94211 13.6263 5.54762 13.6666C3.33952 13.9475 1.6307 15.7813 1.4619 18.0512H18.0619C17.9077 15.7747 16.1914 13.9329 13.9762 13.6666C13.5817 13.6263 13.2939 13.2664 13.3333 12.8628Z" fill="white"/>
</mask>
<g mask="url(#mask0_3749_1796)">
<path d="M20 0H0V19.9999H20V0Z" fill="white"/>
</g>
</svg>
