<svg width="15" height="15" viewBox="0 0 15 15" fill="none" xmlns="http://www.w3.org/2000/svg">
<path fill-rule="evenodd" clip-rule="evenodd" d="M8.6642 7.51729L14.8092 1.25117C15.0736 0.962764 15.0618 0.516707 14.7826 0.242675C14.5033 -0.0313571 14.0571 -0.0347332 13.7738 0.235042L7.63842 6.49149L1.25147 0.225364C1.06862 0.0332956 0.795573 -0.0437553 0.539293 0.0243947C0.283013 0.0925447 0.084302 0.295045 0.0210007 0.552571C-0.0423006 0.810097 0.0398861 1.08165 0.235366 1.26085L6.61264 7.51729L0.235366 13.7737C-0.0344028 14.0571 -0.0310267 14.5033 0.242999 14.7826C0.517025 15.0618 0.963072 15.0736 1.25147 14.8092L7.63842 8.5431L13.7738 14.7995C14.0571 15.0693 14.5033 15.0659 14.7826 14.7919C15.0618 14.5179 15.0736 14.0718 14.8092 13.7834L8.6642 7.51729Z" fill="black"/>
</svg>
