<svg width="103" height="50" viewBox="0 0 103 50" fill="none" xmlns="http://www.w3.org/2000/svg">
<rect width="103" height="50" fill="white"/>
<mask id="mask0" mask-type="alpha" maskUnits="userSpaceOnUse" x="44" y="16" width="17" height="18">
<path fill-rule="evenodd" clip-rule="evenodd" d="M60.393 32.3398L56.466 28.434C59.2176 25.6655 59.3014 21.2212 56.6563 18.3508C54.0111 15.4804 49.5748 15.2017 46.5911 17.7183C43.6074 20.235 43.1342 24.6548 45.5175 27.7461C47.9009 30.8373 52.2957 31.504 55.4885 29.2585L59.492 33.262C59.7432 33.4961 60.1346 33.4892 60.3774 33.2464C60.6202 33.0036 60.6271 32.6122 60.393 32.361V32.3398ZM45.3863 23.3341C45.3863 20.048 48.0502 17.3841 51.3363 17.3841C54.6224 17.3841 57.2863 20.048 57.2863 23.3341C57.2863 26.6201 54.6224 29.284 51.3363 29.284C48.0502 29.284 45.3863 26.6201 45.3863 23.3341Z" fill="white"/>
</mask>
<g mask="url(#mask0)">
<rect x="42" y="15" width="20" height="19.9999" fill="black"/>
</g>
</svg>
