<svg width="40" height="38" viewBox="0 0 40 38" fill="none" xmlns="http://www.w3.org/2000/svg">
<path d="M9.4828 37.9904C9.05772 37.9904 8.63559 37.8549 8.27534 37.5888C7.60427 37.0918 7.29078 36.2377 7.47343 35.4135L9.96945 24.1793L1.50452 16.5943C0.882289 16.0393 0.644587 15.1604 0.90005 14.3561C1.15551 13.5534 1.85056 12.9851 2.67349 12.9074L13.8736 11.8684L18.3018 1.2803C18.6283 0.502381 19.3719 0 20.1981 0C21.0242 0 21.7678 0.502381 22.0943 1.27849L26.5225 11.8684L37.7208 12.9074C38.5456 12.9833 39.2406 13.5534 39.4961 14.3561C39.7515 15.1588 39.5153 16.0393 38.8931 16.5943L30.4281 24.1778L32.9242 35.4117C33.1071 36.2377 32.7933 37.0918 32.1226 37.5872C31.4533 38.0827 30.5608 38.1208 29.8559 37.688L20.1981 31.791L10.5402 37.6913C10.2137 37.8894 9.84986 37.9904 9.4828 37.9904ZM13.7881 12.0732C13.7881 12.0732 13.7881 12.075 13.7863 12.0765L13.7881 12.0732ZM26.6048 12.0683L26.6066 12.0717C26.6066 12.0698 26.6066 12.0698 26.6048 12.0683Z" fill="black" fill-opacity="0.11"/>
</svg>
