<svg width="39" height="38" viewBox="0 0 39 38" fill="none" xmlns="http://www.w3.org/2000/svg">
<path d="M8.68397 37.9904C8.25889 37.9904 7.83677 37.8549 7.47651 37.5888C6.80544 37.0918 6.49196 36.2377 6.6746 35.4135L9.17062 24.1793L0.705691 16.5943C0.0834611 16.0393 -0.154241 15.1604 0.101222 14.3561C0.356686 13.5534 1.05174 12.9851 1.87467 12.9074L13.0748 11.8684L17.5029 1.2803C17.8294 0.502381 18.573 0 19.3992 0C20.2254 0 20.969 0.502381 21.2955 1.27849L25.7237 11.8684L36.922 12.9074C37.7467 12.9833 38.4418 13.5534 38.6972 14.3561C38.9527 15.1588 38.7165 16.0393 38.0942 16.5943L29.6293 24.1778L32.1253 35.4117C32.3083 36.2377 31.9945 37.0918 31.3237 37.5872C30.6544 38.0827 29.7619 38.1208 29.0571 37.688L19.3992 31.791L9.74135 37.6913C9.41484 37.8894 9.05103 37.9904 8.68397 37.9904ZM12.9893 12.0732C12.9893 12.0732 12.9893 12.075 12.9875 12.0765L12.9893 12.0732ZM25.8059 12.0683L25.8077 12.0717C25.8077 12.0698 25.8077 12.0698 25.8059 12.0683Z" fill="#DCC963"/>
</svg>
